<svg width="360" height="361" viewBox="0 0 360 361" fill="none" xmlns="http://www.w3.org/2000/svg">
<g clip-path="url(#clip0)">
<path d="M179.95 360.29C150.54 359.26 122.8 352.64 96.81 339.01C93.95 337.51 91.48 337.26 88.39 338.16C64.59 345.09 40.76 351.86 16.92 358.65C8.80999 360.96 2.03999 357.7 0.489994 350.41C-0.0500061 347.87 0.339994 344.92 1.05999 342.37C7.75999 318.51 14.59 294.68 21.49 270.87C22.3 268.06 22.14 265.79 20.75 263.13C-33.93 159.26 24.31 31.57 138.53 4.8C237.85 -18.49 336.47 45.35 356.12 145.65C375.05 242.28 311.24 337.29 214.75 355.81C203.28 358 191.55 358.83 179.95 360.29ZM179.69 131.91C203.14 131.91 226.6 131.97 250.05 131.83C252.68 131.81 255.56 131.17 257.87 129.95C262.46 127.51 264.48 121.94 263.2 117.08C261.76 111.62 257.24 108.02 251.39 108C233.05 107.93 214.71 107.96 196.38 107.96C167.31 107.96 138.25 108 109.18 107.93C103.66 107.92 99.41 109.88 97 114.94C93.14 123.06 99.16 131.88 108.59 131.9C132.28 131.94 155.98 131.91 179.69 131.91ZM180.09 227.76C156.39 227.76 132.69 227.79 108.98 227.74C103.62 227.73 99.48 229.7 97.07 234.57C93.07 242.68 98.95 251.62 108.37 251.68C123.34 251.77 138.31 251.72 153.28 251.72C185.59 251.72 217.9 251.68 250.21 251.74C255.91 251.75 260.22 249.63 262.55 244.4C266.12 236.38 260.05 227.8 250.82 227.78C227.24 227.72 203.67 227.76 180.09 227.76ZM179.32 191.81C203.02 191.81 226.72 191.82 250.43 191.8C256.39 191.8 260.75 189.08 262.68 184.31C265.97 176.17 259.97 167.89 250.61 167.87C228.53 167.81 206.45 167.86 184.37 167.86C159.17 167.86 133.97 167.88 108.77 167.84C103.22 167.83 99.06 170.08 96.82 175.19C93.27 183.29 99.23 191.75 108.58 191.78C132.17 191.86 155.74 191.8 179.32 191.81Z" fill="black"/>
</g>
<defs>
<clipPath id="clip0">
<rect width="359.44" height="360.29" fill="white"/>
</clipPath>
</defs>
</svg>
