<svg width="285" height="306" viewBox="0 0 285 306" fill="none" xmlns="http://www.w3.org/2000/svg">
<path fill-rule="evenodd" clip-rule="evenodd" d="M0 152.5V305H10H20V237.5V170H43.318C70.002 170 74.403 170.775 80.317 176.519C85.022 181.089 87.439 188.943 86.756 197.447C85.819 209.122 79.033 218.014 66.5 223.991C60.627 226.791 46.403 231 42.812 231C40.569 231 40.559 231.724 42.673 240.761L44.371 248.021L47.935 247.423C66.699 244.275 83.712 237.007 93.291 228.047C104.11 217.926 108.711 205.897 107.669 190.457C106.38 171.356 97.528 160.428 79.267 155.393C74.953 154.204 66.759 153.669 46.75 153.269L20 152.736V84.245V15.754L44.25 16.177C67.756 16.587 68.672 16.679 74.107 19.179C82.961 23.252 86.982 30.238 86.994 41.568C87.014 58.956 74.763 70.676 50.832 76.164C45.7 77.341 41.314 78.459 41.086 78.649C40.858 78.84 41.496 82.602 42.503 87.012L44.334 95.028L47.917 94.388C81.086 88.46 100.972 74.561 106.467 53.465C110.786 36.884 105.922 17.517 95.428 9.513C84.804 1.41 76.143 0.0790037 33.75 0.0350037L0 0V152.5ZM200.702 0.632004C200.316 1.018 200 52.558 200 115.167V229H210.004H220.008L219.754 114.75L219.5 0.5L210.452 0.214996C205.475 0.0579963 201.087 0.246004 200.702 0.632004ZM182.5 155.485C158.385 161.979 144.633 175.421 137.445 199.527C133.88 211.481 132.905 235.469 135.4 249.808C142.246 289.149 168.905 307.749 215.5 305.693C238.871 304.662 252.503 299.536 265.103 287.04C277.004 275.238 281.906 263.354 284.153 240.86C286.818 214.172 280.641 188.581 267.969 173.808C262.702 167.669 252.316 160.882 243.19 157.616C231.877 153.567 231.998 153.507 232.01 163.25L232.021 171.5L237.811 174.193C244.582 177.343 252.552 184.923 256.265 191.745C261.613 201.571 263.43 210.891 263.43 228.5C263.431 240.318 262.978 246.33 261.698 251.5C255.295 277.373 238.207 289.965 209.5 289.965C180.266 289.965 162.582 276.631 156.497 250C154.147 239.717 154.139 218.157 156.481 208C160.346 191.238 168.692 179.991 181.795 173.886C188.293 170.859 189.015 170.233 189.152 167.515C189.598 158.681 189.397 154.647 188.5 154.407C187.95 154.259 185.25 154.745 182.5 155.485Z" fill="#8AD2D2"/>
<path fill-rule="evenodd" clip-rule="evenodd" d="M0 152.5V305H10H20V237.5V170H43.318C70.002 170 74.403 170.775 80.317 176.519C85.022 181.089 87.439 188.943 86.756 197.447C85.819 209.122 79.033 218.014 66.5 223.991C60.627 226.791 46.403 231 42.812 231C40.569 231 40.559 231.724 42.673 240.761L44.371 248.021L47.935 247.423C66.699 244.275 83.712 237.007 93.291 228.047C104.11 217.926 108.711 205.897 107.669 190.457C106.38 171.356 97.528 160.428 79.267 155.393C74.953 154.204 66.759 153.669 46.75 153.269L20 152.736V84.245V15.754L44.25 16.177C67.756 16.587 68.672 16.679 74.107 19.179C82.961 23.252 86.982 30.238 86.994 41.568C87.014 58.956 74.763 70.676 50.832 76.164C45.7 77.341 41.314 78.459 41.086 78.649C40.858 78.84 41.496 82.602 42.503 87.012L44.334 95.028L47.917 94.388C81.086 88.46 100.972 74.561 106.467 53.465C110.786 36.884 105.922 17.517 95.428 9.513C84.804 1.41 76.143 0.0790037 33.75 0.0350037L0 0V152.5ZM200.702 0.632004C200.316 1.018 200 52.558 200 115.167V229H210.004H220.008L219.754 114.75L219.5 0.5L210.452 0.214996C205.475 0.0579963 201.087 0.246004 200.702 0.632004ZM182.5 155.485C158.385 161.979 144.633 175.421 137.445 199.527C133.88 211.481 132.905 235.469 135.4 249.808C142.246 289.149 168.905 307.749 215.5 305.693C238.871 304.662 252.503 299.536 265.103 287.04C277.004 275.238 281.906 263.354 284.153 240.86C286.818 214.172 280.641 188.581 267.969 173.808C262.702 167.669 252.316 160.882 243.19 157.616C231.877 153.567 231.998 153.507 232.01 163.25L232.021 171.5L237.811 174.193C244.582 177.343 252.552 184.923 256.265 191.745C261.613 201.571 263.43 210.891 263.43 228.5C263.431 240.318 262.978 246.33 261.698 251.5C255.295 277.373 238.207 289.965 209.5 289.965C180.266 289.965 162.582 276.631 156.497 250C154.147 239.717 154.139 218.157 156.481 208C160.346 191.238 168.692 179.991 181.795 173.886C188.293 170.859 189.015 170.233 189.152 167.515C189.598 158.681 189.397 154.647 188.5 154.407C187.95 154.259 185.25 154.745 182.5 155.485Z" fill="url(#paint0_linear)"/>
<defs>
<linearGradient id="paint0_linear" x1="142.382" y1="0" x2="142.382" y2="305.846" gradientUnits="userSpaceOnUse">
<stop stop-color="white" stop-opacity="0"/>
<stop offset="1" stop-color="#A2CBC3"/>
</linearGradient>
</defs>
</svg>
